<svg width="15" height="15" viewBox="0 0 15 15" fill="none" xmlns="http://www.w3.org/2000/svg">
<path d="M12.5488 2.4438C11.1659 1.06567 9.32195 0.300049 7.37561 0.300049C3.32927 0.300049 0.0512187 3.56672 0.0512187 7.59901C0.0512187 8.87505 0.409756 10.1511 1.02439 11.223L0 15L3.89268 13.9792C4.96829 14.5407 6.14634 14.8469 7.37561 14.8469C11.4219 14.8469 14.7 11.5803 14.7 7.54797C14.6488 5.65942 13.9317 3.82192 12.5488 2.4438ZM10.9098 10.2021C10.7561 10.6105 10.039 11.0188 9.68049 11.0698C9.37317 11.1209 8.96342 11.1209 8.55366 11.0188C8.29756 10.9167 7.93902 10.8146 7.52927 10.6105C5.68537 9.84484 4.50732 8.00734 4.40488 7.85422C4.30244 7.75213 3.63659 6.88442 3.63659 5.96567C3.63659 5.04692 4.09756 4.63859 4.25122 4.43442C4.40488 4.23026 4.60976 4.23026 4.76341 4.23026C4.86585 4.23026 5.01951 4.23026 5.12195 4.23026C5.22439 4.23026 5.37805 4.17922 5.53171 4.53651C5.68537 4.8938 6.0439 5.81255 6.09512 5.86359C6.14634 5.96567 6.14634 6.06776 6.09512 6.16984C6.0439 6.27192 5.99268 6.37401 5.89024 6.47609C5.7878 6.57817 5.68536 6.7313 5.63414 6.78234C5.53171 6.88442 5.42927 6.98651 5.53171 7.13963C5.63415 7.3438 5.99268 7.90526 6.5561 8.41567C7.27317 9.02817 7.83659 9.23234 8.04146 9.33442C8.24634 9.43651 8.34878 9.38546 8.45122 9.28338C8.55366 9.1813 8.9122 8.77297 9.01464 8.5688C9.11707 8.36463 9.27073 8.41567 9.42439 8.46672C9.57805 8.51776 10.5 8.97713 10.6537 9.07922C10.8585 9.1813 10.961 9.23234 11.0122 9.28338C11.0634 9.43651 11.0634 9.7938 10.9098 10.2021Z" fill="white"/>
</svg>
